<svg width="169" height="40" viewBox="0 0 169 40" fill="none" xmlns="http://www.w3.org/2000/svg">
<g clip-path="url(#clip0_470_793)">
<path d="M38.8249 15.9209V13.424H50.471V8.05497H38.8249V5.55868H55.7754V0.189087H32.262V21.2899H55.6401V15.9209H38.8249Z" fill="#0B4D53"/>
<path d="M83.245 13.5311C84.2657 13.1556 85.1346 12.6294 85.8379 11.9605C87.0996 10.7694 87.7397 9.20736 87.7397 7.31802C87.7397 5.18376 86.9651 3.44518 85.4375 2.15134C83.9023 0.850442 81.8073 0.191132 79.2119 0.191132H61.7998V21.2899H68.3608V14.243H75.9291L81.5179 21.2899H89.2118L83.245 13.5311ZM68.3608 5.55868H78.3849C80.8835 5.55868 81.0926 6.42798 81.0926 7.31802C81.0926 8.13874 80.9096 8.87544 78.6986 8.87544H68.3608V5.55868Z" fill="#0B4D53"/>
<path d="M133.176 0.191132H126.62V21.2899H133.176V0.191132Z" fill="#0B4D53"/>
<path d="M24.5886 2.12944C22.9948 0.821723 20.8495 0.15873 18.2119 0.15873H0V5.59885H17.3529C19.8834 5.59885 20.095 6.46371 20.095 7.34943C20.095 8.00197 20.095 8.89555 17.5869 8.89555H0V21.4231H6.8151V14.3341H17.5257C20.4782 14.3341 22.8061 13.728 24.4453 12.5319C26.1364 11.2987 26.9941 9.53769 26.9941 7.29781C26.9941 5.17112 26.1845 3.43194 24.5886 2.12944Z" fill="#0B4D53"/>
<path d="M120.46 21.2899H113.917L100.436 8.32692V21.2899H93.8779V0.191132H100.409L100.879 0.635881L113.901 13.1591V0.191132H120.46L120.46 21.2899Z" fill="#0B4D53"/>
<path d="M137.237 0.15873L148.253 10.599L136.872 21.2919H145.173L156.422 10.5898L145.527 0.15873H137.237Z" fill="#0B4D53"/>
<path d="M158.595 9.16869L168.102 0.15873H159.812L154.498 5.24612L158.595 9.16869Z" fill="#0B4D53"/>
<path d="M158.587 12.0094L154.498 15.8997L160.166 21.2918H168.467L158.587 12.0094Z" fill="#0B4D53"/>
<path d="M0 34.2785C0 32.2319 0.670693 30.7877 2.01252 29.9461C3.3539 29.1051 5.23573 28.684 7.65756 28.684C9.84341 28.684 11.5577 28.9622 12.8017 29.5175C14.0449 30.0734 14.7912 31.0008 15.04 32.2995H12.0359C11.8395 31.6138 11.3813 31.1436 10.6612 30.8889C9.94124 30.6343 8.93987 30.507 7.6575 30.507C6.15175 30.507 5.00013 30.7411 4.20182 31.2082C3.40313 31.6759 3.00404 32.502 3.00404 33.6859V34.8393C3.00404 36.0133 3.39968 36.8363 4.19166 37.3089C4.9837 37.7823 6.13218 38.0183 7.63756 38.0183C9.18206 38.0183 10.3274 37.8288 11.0737 37.4493C11.8199 37.0704 12.2386 36.4654 12.3301 35.6337H7.83397V34.0287H15.2164V35.0263C15.2164 36.6779 14.5489 37.8934 13.2137 38.6729C11.8785 39.4518 10.0265 39.8413 7.6575 39.8413C6.44016 39.8413 5.35657 39.745 4.4077 39.553C3.45876 39.3611 2.657 39.0468 2.00273 38.6102C1.3481 38.1742 0.850736 37.6003 0.510278 36.8884C0.169821 36.1773 0 35.307 0 34.2785Z" fill="#0B4D53"/>
<path d="M22.4612 28.8865H31.1397C32.658 28.8865 33.8265 29.1778 34.6447 29.7592C35.4625 30.3412 35.8718 31.1722 35.8718 32.2524C35.8718 33.094 35.639 33.7853 35.1745 34.325C34.71 34.8654 34.026 35.2443 33.1228 35.4624L36.3429 39.6388H33.0442L30.001 35.681H25.4457V39.6388H22.4612L22.4612 28.8865ZM32.8677 32.4549V32.0965C32.8677 31.6604 32.7037 31.3095 32.3766 31.0449C32.0495 30.7797 31.4997 30.6474 30.7273 30.6474H25.4458V33.9046H30.7273C31.4864 33.9046 32.0331 33.7692 32.3669 33.499C32.7007 33.2294 32.8677 32.881 32.8677 32.4549Z" fill="#0B4D53"/>
<path d="M42.5276 34.2158C42.5276 33.1878 42.7041 32.3201 43.0574 31.6139C43.4112 30.907 43.9281 30.3387 44.6086 29.9076C45.2891 29.4766 46.1402 29.1647 47.1611 28.9722C48.182 28.7803 49.3536 28.684 50.6759 28.684C51.9844 28.684 53.1497 28.7802 54.1707 28.9722C55.1916 29.1647 56.0427 29.4766 56.7228 29.9076C57.4037 30.3387 57.9206 30.907 58.2736 31.6139C58.6273 32.3201 58.8042 33.1878 58.8042 34.2158C58.8042 35.2549 58.6273 36.1357 58.2736 36.8574C57.9207 37.5792 57.4037 38.1587 56.7228 38.5947C56.0427 39.0314 55.1916 39.3481 54.1707 39.545C53.1497 39.7426 51.9844 39.8413 50.6759 39.8413C49.3536 39.8413 48.182 39.7426 47.1611 39.545C46.1402 39.3481 45.2891 39.0314 44.6086 38.5947C43.9281 38.1587 43.4112 37.5791 43.0574 36.8574C42.7041 36.1357 42.5276 35.2549 42.5276 34.2158ZM55.8004 34.7928V33.6859C55.8004 32.5437 55.3684 31.7307 54.5044 31.2474C53.6403 30.7642 52.3643 30.5232 50.6758 30.5232C48.974 30.5232 47.6913 30.7642 46.8273 31.2474C45.9637 31.7306 45.5317 32.5437 45.5317 33.6859V34.7928C45.5317 35.9667 45.9637 36.7947 46.8273 37.2779C47.6913 37.7612 48.974 38.0028 50.6758 38.0028C52.3643 38.0028 53.6404 37.7612 54.5044 37.2779C55.3684 36.7947 55.8004 35.9667 55.8004 34.7928Z" fill="#0B4D53"/>
<path d="M65.9314 35.2443V28.8865H68.9156V35.1667C68.9156 36.2679 69.2623 37.0157 69.9564 37.4102C70.6498 37.8052 71.6578 38.0027 72.9805 38.0027C74.3023 38.0027 75.3096 37.8052 76.0038 37.4102C76.6972 37.0157 77.0446 36.2679 77.0446 35.1667V28.8865H79.7345V35.2443C79.7345 36.8238 79.1781 37.9847 78.0652 38.727C76.9531 39.4698 75.2579 39.8413 72.9805 39.8413C70.6499 39.8413 68.8929 39.4698 67.708 38.727C66.5239 37.9847 65.9314 36.8238 65.9314 35.2443Z" fill="#0B4D53"/>
<path d="M87.4902 28.8865H96.1687C97.7786 28.8865 98.9697 29.2008 99.7422 29.8293C100.514 30.4579 100.9 31.3281 100.9 32.4393C100.9 33.5617 100.514 34.4393 99.7422 35.0729C98.9697 35.707 97.7786 36.0238 96.1687 36.0238H90.4744V39.6388H87.4902V28.8865ZM97.8764 32.689V32.2368C97.8764 31.7902 97.7097 31.4269 97.3755 31.1461C97.0422 30.8654 96.5084 30.7256 95.7758 30.7256H90.4744V34.1846H95.7758C96.5217 34.1846 97.0585 34.0474 97.3857 33.7716C97.7129 33.4964 97.8764 33.1356 97.8764 32.689Z" fill="#0B4D53"/>
</g>
<defs>
<clipPath id="clip0_470_793">
<rect width="168.467" height="39.6825" fill="white" transform="translate(0 0.15873)"/>
</clipPath>
</defs>
</svg>
