<svg width="352" height="448" viewBox="0 0 352 448" fill="none" xmlns="http://www.w3.org/2000/svg">
<path d="M348 192H208C195.27 192 183.061 186.943 174.059 177.941C165.057 168.939 160 156.73 160 144V4C160 2.93913 159.579 1.92172 158.828 1.17157C158.078 0.421428 157.061 0 156 0H64C47.0261 0 30.7475 6.74284 18.7452 18.7452C6.74284 30.7475 0 47.0261 0 64V384C0 400.974 6.74284 417.252 18.7452 429.255C30.7475 441.257 47.0261 448 64 448H288C304.974 448 321.252 441.257 333.255 429.255C345.257 417.252 352 400.974 352 384V196C352 194.939 351.579 193.922 350.828 193.172C350.078 192.421 349.061 192 348 192Z" fill="#f28500"/>
<path d="M339.22 156.591L195.41 12.7808C195.13 12.5028 194.775 12.3137 194.388 12.2372C194.001 12.1607 193.6 12.2003 193.236 12.351C192.871 12.5017 192.56 12.7567 192.34 13.0841C192.12 13.4114 192.002 13.7965 192 14.1908V144.001C192 148.244 193.686 152.314 196.686 155.315C199.687 158.315 203.757 160.001 208 160.001H337.81C338.204 159.999 338.589 159.881 338.917 159.661C339.244 159.441 339.499 159.129 339.65 158.765C339.801 158.401 339.84 158 339.764 157.613C339.687 157.226 339.498 156.87 339.22 156.591Z" fill="#f28500"/>
</svg>
