<svg width="156" height="40" viewBox="0 0 156 40" fill="none" xmlns="http://www.w3.org/2000/svg">
<path d="M36.0587 15.9212V13.4244H46.7666V8.05534H36.0587V5.55905H51.6437V0.189453H30.0244V21.2903H51.5193V15.9212H36.0587Z" fill="#0B4D53"/>
<path d="M76.9003 13.5314C77.8388 13.1559 78.6377 12.6297 79.2843 11.9607C80.4443 10.7696 81.0329 9.20764 81.0329 7.3183C81.0329 5.18404 80.3207 3.44545 78.9162 2.15162C77.5046 0.850717 75.5784 0.191406 73.192 0.191406H57.1826V21.2902H63.2151V14.2433H70.1737L75.3123 21.2902H82.3864L76.9003 13.5314ZM63.2151 5.55896H72.4317C74.729 5.55896 74.9213 6.42825 74.9213 7.3183C74.9213 8.13901 74.753 8.87572 72.7201 8.87572H63.2151V5.55896Z" fill="#0B4D53"/>
<path d="M122.81 0.191406H116.782V21.2902H122.81V0.191406Z" fill="#0B4D53"/>
<path d="M22.9692 2.12892C21.5038 0.821196 19.5313 0.158203 17.1062 0.158203H0.361328V5.59832H16.3164C18.643 5.59832 18.8376 6.46318 18.8376 7.3489C18.8376 8.00144 18.8376 8.89502 16.5315 8.89502H0.361328V21.4226H6.62744V14.3336H16.4753C19.1899 14.3336 21.3303 13.7274 22.8374 12.5314C24.3923 11.2982 25.1809 9.53716 25.1809 7.29729C25.1809 5.17059 24.4365 3.43141 22.9692 2.12892Z" fill="#0B4D53"/>
<path d="M111.118 21.2902H105.102L92.7069 8.3272V21.2902H86.6768V0.191406H92.6817L93.1143 0.636156L105.087 13.1594V0.191406H111.118L111.118 21.2902Z" fill="#0B4D53"/>
<path d="M126.543 0.158203L136.671 10.5985L126.207 21.2914H133.84L144.182 10.5893L134.165 0.158203H126.543Z" fill="#0B4D53"/>
<path d="M146.181 9.16816L154.921 0.158203H147.299L142.414 5.2456L146.181 9.16816Z" fill="#0B4D53"/>
<path d="M146.173 12.0098L142.414 15.9L147.625 21.2922H155.257L146.173 12.0098Z" fill="#0B4D53"/>
<path d="M0.361328 34.2781C0.361328 32.2315 0.977993 30.7873 2.21173 29.9457C3.44506 29.1047 5.17529 28.6836 7.40203 28.6836C9.4118 28.6836 10.988 28.9619 12.1318 29.5172C13.2748 30.073 13.961 31.0004 14.1898 32.2992H11.4277C11.2471 31.6134 10.8258 31.1433 10.1637 30.8886C9.50175 30.6339 8.58104 30.5066 7.40197 30.5066C6.01752 30.5066 4.95867 30.7408 4.22466 31.2079C3.49032 31.6755 3.12337 32.5016 3.12337 33.6855V34.839C3.12337 36.0129 3.48715 36.8359 4.21532 37.3086C4.94356 37.7819 5.99953 38.0179 7.38364 38.0179C8.80372 38.0179 9.85681 37.8285 10.543 37.4489C11.2291 37.07 11.614 36.4651 11.6982 35.6334H7.56423V34.0284H14.352V35.0259C14.352 36.6775 13.7382 37.893 12.5106 38.6725C11.283 39.4514 9.5801 39.8409 7.40197 39.8409C6.28269 39.8409 5.2864 39.7446 4.41396 39.5527C3.54146 39.3608 2.80429 39.0465 2.20273 38.6098C1.60083 38.1738 1.14353 37.5999 0.830501 36.8881C0.517469 36.1769 0.361328 35.3067 0.361328 34.2781Z" fill="#0B4D53"/>
<path d="M21.0132 28.8867H28.9926C30.3886 28.8867 31.4629 29.178 32.2153 29.7594C32.9672 30.3414 33.3435 31.1725 33.3435 32.2526C33.3435 33.0942 33.1294 33.7855 32.7024 34.3253C32.2753 34.8657 31.6464 35.2446 30.816 35.4626L33.7767 39.639H30.7437L27.9456 35.6812H23.7573V39.639H21.0132L21.0132 28.8867ZM30.5814 32.4551V32.0967C30.5814 31.6607 30.4307 31.3097 30.1299 31.0452C29.8291 30.7799 29.3236 30.6476 28.6134 30.6476H23.7574V33.9048H28.6134C29.3114 33.9048 29.814 33.7694 30.1209 33.4993C30.4278 33.2297 30.5814 32.8813 30.5814 32.4551Z" fill="#0B4D53"/>
<path d="M39.4629 34.2154C39.4629 33.1874 39.6251 32.3197 39.9501 31.6135C40.2753 30.9066 40.7506 30.3383 41.3763 29.9073C42.0019 29.4762 42.7845 29.1644 43.7232 28.9718C44.6618 28.7799 45.739 28.6836 46.9548 28.6836C48.1579 28.6836 49.2294 28.7799 50.1681 28.9718C51.1068 29.1644 51.8893 29.4762 52.5146 29.9073C53.1406 30.3383 53.6159 30.9066 53.9405 31.6135C54.2657 32.3197 54.4283 33.1874 54.4283 34.2154C54.4283 35.2545 54.2657 36.1353 53.9405 36.8571C53.616 37.5788 53.1407 38.1583 52.5146 38.5944C51.8893 39.031 51.1068 39.3478 50.1681 39.5447C49.2294 39.7422 48.1579 39.841 46.9548 39.841C45.739 39.841 44.6618 39.7422 43.7232 39.5447C42.7845 39.3478 42.0019 39.031 41.3763 38.5944C40.7506 38.1583 40.2753 37.5788 39.9501 36.8571C39.6251 36.1353 39.4629 35.2545 39.4629 34.2154ZM51.6665 34.7924V33.6856C51.6665 32.5433 51.2693 31.7303 50.4749 31.247C49.6804 30.7638 48.5072 30.5228 46.9547 30.5228C45.39 30.5228 44.2106 30.7638 43.4162 31.247C42.6222 31.7302 42.225 32.5433 42.225 33.6856V34.7924C42.225 35.9664 42.6222 36.7943 43.4162 37.2776C44.2107 37.7608 45.39 38.0024 46.9547 38.0024C48.5072 38.0024 49.6805 37.7608 50.4749 37.2776C51.2693 36.7944 51.6665 35.9664 51.6665 34.7924Z" fill="#0B4D53"/>
<path d="M60.9814 35.2446V28.8867H63.7252V35.1669C63.7252 36.2682 64.044 37.016 64.6822 37.4104C65.3198 37.8054 66.2466 38.003 67.4627 38.003C68.678 38.003 69.6041 37.8054 70.2424 37.4104C70.88 37.016 71.1995 36.2682 71.1995 35.1669V28.8867H73.6726V35.2446C73.6726 36.8241 73.161 37.985 72.1378 38.7272C71.1153 39.4701 69.5567 39.8415 67.4627 39.8415C65.3198 39.8415 63.7044 39.4701 62.6149 38.7272C61.5262 37.985 60.9814 36.8241 60.9814 35.2446Z" fill="#0B4D53"/>
<path d="M80.8037 28.8867H88.7831C90.2633 28.8867 91.3584 29.201 92.0687 29.8296C92.7782 30.4582 93.1337 31.3284 93.1337 32.4395C93.1337 33.5619 92.7782 34.4396 92.0687 35.0731C91.3584 35.7073 90.2633 36.0241 88.7831 36.0241H83.5475V39.639H80.8037V28.8867ZM90.3532 32.6892V32.2371C90.3532 31.7905 90.2 31.4271 89.8927 31.1464C89.5862 30.8656 89.0954 30.7258 88.4219 30.7258H83.5475V34.1849H88.4219C89.1076 34.1849 89.6012 34.0476 89.902 33.7718C90.2028 33.4967 90.3532 33.1358 90.3532 32.6892Z" fill="#0B4D53"/>
</svg>
