<svg width="512" height="512" viewBox="0 0 512 512" fill="none" xmlns="http://www.w3.org/2000/svg">
<g clip-path="url(#clip0_4533_10679)">
<path d="M255.688 -0.312502C256.655 -0.310679 257.622 -0.308856 258.619 -0.306978C272.952 -0.26155 286.898 0.247337 301 3C302.346 3.24146 302.346 3.24146 303.718 3.48779C363.528 14.3104 421.042 48.3681 458 97C458.417 97.5403 458.833 98.0806 459.263 98.6372C466.946 108.632 473.688 119.092 480 130C480.394 130.677 480.789 131.354 481.195 132.052C494.377 154.971 502.983 180.546 508.312 206.375C508.46 207.086 508.607 207.796 508.759 208.529C511.597 223.397 512.35 238.274 512.316 253.375C512.313 256.234 512.336 259.091 512.361 261.949C512.407 275.183 511.169 287.951 509 301C508.718 302.707 508.718 302.707 508.43 304.448C497.744 363.892 463.251 421.332 415 458C414.46 458.417 413.919 458.833 413.363 459.263C403.368 466.946 392.908 473.688 382 480C381.323 480.394 380.646 480.789 379.948 481.195C357.029 494.377 331.454 502.983 305.625 508.312C304.914 508.46 304.204 508.607 303.471 508.759C287.829 511.745 272.193 512.375 256.312 512.313C255.345 512.311 254.378 512.309 253.381 512.307C239.048 512.262 225.102 511.753 211 509C210.103 508.839 209.206 508.678 208.282 508.512C148.472 497.69 90.9576 463.632 54 415C53.5833 414.46 53.1666 413.919 52.7373 413.363C45.054 403.368 38.3116 392.908 32 382C31.6057 381.323 31.2114 380.646 30.8052 379.948C17.6229 357.029 9.0174 331.454 3.68751 305.625C3.54007 304.914 3.39263 304.204 3.24073 303.471C0.255368 287.829 -0.374804 272.193 -0.312494 256.312C-0.310671 255.345 -0.308849 254.378 -0.30697 253.381C-0.261542 239.048 0.247345 225.102 3.00001 211C3.24146 209.654 3.24146 209.654 3.4878 208.282C14.3104 148.472 48.3682 90.9575 97 54C97.5403 53.5833 98.0806 53.1666 98.6372 52.7373C108.632 45.054 119.092 38.3116 130 32C130.677 31.6057 131.354 31.2114 132.052 30.8052C154.971 17.6229 180.546 9.01739 206.375 3.6875C207.086 3.54006 207.796 3.39263 208.529 3.24072C224.171 0.25536 239.807 -0.374812 255.688 -0.312502Z" fill="url(#paint0_linear_4533_10679)"/>
<path d="M387.566 129.441C392.306 132.477 396.279 136.315 400.252 140.267C402.186 142.184 404.147 144.072 406.109 145.961C407.533 147.348 408.955 148.736 410.375 150.125C411.041 150.769 411.707 151.413 412.393 152.077C420.111 159.746 425.875 167.514 426.438 178.625C425.788 195.24 414.765 204.239 403.64 215.265C401.835 217.08 400.031 218.897 398.229 220.714C393.852 225.12 389.459 229.508 385.058 233.889C381.479 237.452 377.907 241.022 374.339 244.597C373.83 245.108 373.321 245.618 372.796 246.144C371.761 247.181 370.726 248.218 369.691 249.255C360.005 258.961 350.298 268.646 340.583 278.323C332.262 286.613 323.96 294.92 315.671 303.241C306.027 312.923 296.371 322.594 286.697 332.246C285.664 333.277 284.631 334.308 283.598 335.339C283.089 335.846 282.581 336.353 282.058 336.876C278.491 340.436 274.932 344.005 271.377 347.577C266.585 352.391 261.774 357.186 256.95 361.97C255.187 363.724 253.429 365.484 251.678 367.251C234.02 385.05 234.02 385.05 220.406 387.699C208.77 387.652 200.109 382.762 191.937 374.694C191.159 373.896 190.381 373.098 189.579 372.276C188.72 371.42 187.862 370.564 186.977 369.682C184.654 367.36 182.345 365.025 180.042 362.683C177.612 360.219 175.166 357.773 172.721 355.324C168.622 351.213 164.534 347.091 160.454 342.962C154.721 337.159 148.968 331.377 143.211 325.598C138.714 321.083 134.222 316.561 129.73 312.039C129.254 311.559 128.777 311.08 128.286 310.585C125.111 307.389 121.942 304.187 118.774 300.983C117.986 300.189 117.198 299.395 116.386 298.577C112.281 294.417 108.326 290.182 104.532 285.736C102.577 283.521 100.469 281.51 98.3196 279.487C93.0658 274.522 89.0322 270.12 87 263C86.7525 262.196 86.505 261.391 86.25 260.562C85.302 250.846 85.8977 243.23 92.1172 235.301C94.427 232.728 96.7859 230.246 99.2236 227.795C101.222 225.775 103.184 223.722 105.148 221.668C106.618 220.152 108.09 218.638 109.563 217.125C110.246 216.411 110.929 215.698 111.634 214.963C119.271 207.244 127.006 201.901 138.063 201.687C139.312 201.65 140.561 201.613 141.848 201.574C154.617 202.405 161.925 211.132 170.32 219.734C171.672 221.098 173.026 222.459 174.38 223.82C177.922 227.384 181.445 230.966 184.964 234.552C188.566 238.216 192.186 241.863 195.805 245.512C202.887 252.658 209.949 259.823 217 267C220.872 265.421 223.473 262.794 226.356 259.865C226.884 259.336 227.412 258.808 227.956 258.264C229.723 256.492 231.484 254.713 233.245 252.935C234.511 251.663 235.778 250.391 237.045 249.121C239.774 246.382 242.5 243.64 245.223 240.896C249.534 236.554 253.853 232.219 258.174 227.886C268.908 217.118 279.632 206.341 290.352 195.558C298.676 187.186 307.004 178.816 315.342 170.457C319.632 166.155 323.916 161.846 328.195 157.532C330.866 154.841 333.544 152.157 336.223 149.474C337.459 148.235 338.692 146.992 339.922 145.747C352.998 132.519 368.087 120.198 387.566 129.441Z" fill="#FEFEFE"/>
</g>
<defs>
<linearGradient id="paint0_linear_4533_10679" x1="-21" y1="8.5318e-06" x2="663.5" y2="611.5" gradientUnits="userSpaceOnUse">
<stop stop-color="#0B4D53"/>
<stop offset="1" stop-color="#19ACB9"/>
</linearGradient>
<clipPath id="clip0_4533_10679">
<rect width="512" height="512" fill="white"/>
</clipPath>
</defs>
</svg>
