<svg width="37" height="40" viewBox="0 0 37 40" fill="none" xmlns="http://www.w3.org/2000/svg">
<path d="M11.3285 8.02146C11.3285 4.04949 14.5484 0.82959 18.5203 0.82959C22.4924 0.82959 25.7122 4.04949 25.7122 8.02146C25.7122 11.501 23.2412 14.4035 19.9582 15.0696V19.0422H26.1873C28.569 19.0422 30.4998 20.9731 30.4998 23.3547V24.935C33.7852 25.5993 36.2587 28.5029 36.2587 31.9841C36.2587 35.956 33.0387 39.176 29.0667 39.176C25.0948 39.176 21.8748 35.956 21.8748 31.9841C21.8748 28.506 24.3439 25.6045 27.6248 24.9368V23.3547C27.6248 22.5609 26.9812 21.9172 26.1873 21.9172H10.854C10.0601 21.9172 9.4165 22.5609 9.4165 23.3547V24.935C12.7018 25.5993 15.1753 28.5029 15.1753 31.9841C15.1753 35.956 11.9553 39.176 7.98337 39.176C4.01143 39.176 0.791504 35.956 0.791504 31.9841C0.791504 28.506 3.26053 25.6045 6.5415 24.9368V23.3547C6.5415 20.9731 8.47228 19.0422 10.854 19.0422H17.0832V15.0697C13.7999 14.4038 11.3285 11.5012 11.3285 8.02146Z" fill="white"/>
</svg>
