<svg width="37" height="40" viewBox="0 0 37 40" fill="none" xmlns="http://www.w3.org/2000/svg">
<path d="M11.3287 8.02146C11.3287 4.04949 14.5486 0.82959 18.5205 0.82959C22.4926 0.82959 25.7124 4.04949 25.7124 8.02146C25.7124 11.501 23.2415 14.4035 19.9584 15.0696V19.0422H26.1876C28.5692 19.0422 30.5001 20.9731 30.5001 23.3547V24.935C33.7854 25.5993 36.2589 28.5029 36.2589 31.9841C36.2589 35.956 33.0389 39.176 29.067 39.176C25.0951 39.176 21.8751 35.956 21.8751 31.9841C21.8751 28.506 24.3441 25.6045 27.6251 24.9368V23.3547C27.6251 22.5609 26.9815 21.9172 26.1876 21.9172H10.8542C10.0603 21.9172 9.41675 22.5609 9.41675 23.3547V24.935C12.7021 25.5993 15.1756 28.5029 15.1756 31.9841C15.1756 35.956 11.9556 39.176 7.98362 39.176C4.01167 39.176 0.791748 35.956 0.791748 31.9841C0.791748 28.506 3.26078 25.6045 6.54175 24.9368V23.3547C6.54175 20.9731 8.47252 19.0422 10.8542 19.0422H17.0834V15.0697C13.8001 14.4038 11.3287 11.5012 11.3287 8.02146Z" fill="#0B4D53"/>
</svg>
