<svg width="60" height="75" viewBox="0 0 60 75" fill="none" xmlns="http://www.w3.org/2000/svg">
<path d="M51.8789 9.375H41.5872C40.4827 9.375 39.6101 8.46824 39.3658 7.391C38.409 3.17032 34.4638 0 29.7539 0C25.044 0 21.0988 3.17032 20.142 7.391C19.8978 8.46824 19.0251 9.375 17.9206 9.375H7.62891C3.55729 9.375 0.253906 12.5244 0.253906 16.4062V67.9688C0.253906 71.8506 3.55729 75 7.62891 75H51.8789C55.9505 75 59.2539 71.8506 59.2539 67.9688V16.4062C59.2539 12.5244 55.9505 9.375 51.8789 9.375ZM29.7539 5.85938C31.7974 5.85938 33.4414 7.42676 33.4414 9.375C33.4414 11.3232 31.7974 12.8906 29.7539 12.8906C27.7104 12.8906 26.0664 11.3232 26.0664 9.375C26.0664 7.42676 27.7104 5.85938 29.7539 5.85938ZM48.3758 39.8145L26.4044 60.5859C25.6823 61.2744 24.5146 61.2598 23.7924 60.5713L11.1013 48.3691C10.3792 47.6807 10.3945 46.5674 11.1167 45.8789L15.4802 41.748C16.2023 41.0596 17.3701 41.0742 18.0922 41.7627L23.7848 47.2371C24.5545 47.9774 25.77 47.9823 26.5457 47.2483L41.4464 33.1494C42.1685 32.4609 43.3362 32.4756 44.0583 33.1641L48.3911 37.3242C49.1133 38.0273 49.0979 39.126 48.3758 39.8145Z" fill="#106069" fill-opacity="19%"/>
</svg>
