<svg width="416" height="416" viewBox="0 0 416 416" fill="none" xmlns="http://www.w3.org/2000/svg">
<path d="M336 176V360C336 365.253 334.965 370.454 332.955 375.307C330.945 380.16 327.999 384.57 324.284 388.284C320.57 391.999 316.16 394.945 311.307 396.955C306.454 398.965 301.253 400 296 400H56C45.3913 400 35.2172 395.786 27.7157 388.284C20.2143 380.783 16 370.609 16 360V120C16 109.391 20.2143 99.2172 27.7157 91.7157C35.2172 84.2143 45.3913 80 56 80H223.48" fill="#0B4D53" fill-opacity="0.15"/>
<path d="M336 176V360C336 365.253 334.965 370.454 332.955 375.307C330.945 380.16 327.999 384.57 324.284 388.284C320.57 391.999 316.16 394.945 311.307 396.955C306.454 398.965 301.253 400 296 400H56C45.3913 400 35.2172 395.786 27.7157 388.284C20.2143 380.783 16 370.609 16 360V120C16 109.391 20.2143 99.2172 27.7157 91.7157C35.2172 84.2143 45.3913 80 56 80H223.48" stroke="#0B4D53" stroke-width="32" stroke-linecap="round" stroke-linejoin="round"/>
<path d="M411.94 5.25029C410.479 3.64471 408.707 2.35205 406.732 1.45045C404.757 0.548843 402.62 0.0570115 400.45 0.00466886C398.279 -0.0476738 396.121 0.340559 394.105 1.14591C392.089 1.95126 390.257 3.15701 388.72 4.69029L376.35 17.0003C374.851 18.5004 374.008 20.5345 374.008 22.6553C374.008 24.7761 374.851 26.8102 376.35 28.3103L387.69 39.6303C388.433 40.3771 389.317 40.9697 390.29 41.3741C391.263 41.7785 392.306 41.9866 393.36 41.9866C394.413 41.9866 395.457 41.7785 396.43 41.3741C397.403 40.9697 398.286 40.3771 399.03 39.6303L411.09 27.6303C417.19 21.5403 417.76 11.6203 411.94 5.25029ZM351.34 42.0003L170.82 222.2C169.725 223.29 168.93 224.644 168.51 226.13L160.16 251C159.96 251.675 159.946 252.391 160.119 253.074C160.292 253.756 160.646 254.379 161.144 254.876C161.641 255.374 162.264 255.728 162.946 255.901C163.629 256.075 164.345 256.06 165.02 255.86L189.87 247.51C191.356 247.09 192.71 246.295 193.8 245.2L374 64.6603C375.667 62.9753 376.602 60.7006 376.602 58.3303C376.602 55.9599 375.667 53.6853 374 52.0003L364.05 42.0003C362.363 40.3179 360.077 39.3732 357.695 39.3732C355.312 39.3732 353.027 40.3179 351.34 42.0003Z" fill="#0B4D53"/>
</svg>
