<svg width="93" height="93" viewBox="0 0 93 93" fill="none" xmlns="http://www.w3.org/2000/svg">
<path d="M80.9031 23.061C80.1222 22.2795 78.8555 22.2792 78.0742 23.0604L77.3692 23.7654C76.29 24.8445 74.8264 25.4507 73.3002 25.4507C71.774 25.4507 70.3104 24.8445 69.2312 23.7654C68.152 22.6863 67.5458 21.2227 67.5458 19.6966C67.5458 18.1705 68.152 16.707 69.2312 15.6279L69.9366 14.9225C70.7177 14.1414 70.7177 12.8751 69.9366 12.094L59.256 1.41408C58.475 0.633093 57.2087 0.633091 56.4277 1.41408L41.1263 16.7145C40.9057 16.9351 40.7398 17.2043 40.6417 17.5005L40.3316 18.4377C40.1329 19.0384 39.6617 19.5096 39.061 19.7083L38.1236 20.0184C37.8274 20.1164 37.5583 20.2823 37.3376 20.5029L1.41435 56.424C0.633238 57.205 0.633239 58.4714 1.41435 59.2525L12.1027 69.9402C12.8837 70.7212 14.15 70.7212 14.931 69.9402L15.6366 69.2346C16.7158 68.1555 18.1794 67.5493 19.7056 67.5493C21.2318 67.5493 22.6954 68.1555 23.7746 69.2346C24.8538 70.3137 25.46 71.7773 25.46 73.3034C25.46 74.8295 24.8538 76.293 23.7746 77.3721L23.0692 78.0775C22.2881 78.8585 22.2881 80.1249 23.0692 80.906L33.7498 91.5859C34.5308 92.3669 35.7971 92.3669 36.5781 91.5859L72.4958 55.6705C72.7164 55.4499 72.8823 55.1807 72.9804 54.8845L73.2905 53.9473C73.4892 53.3466 73.9604 52.8754 74.5611 52.6767L75.4985 52.3666C75.7947 52.2686 76.0638 52.1027 76.2845 51.8821L91.5863 36.5812C92.3671 35.8004 92.3674 34.5345 91.5869 33.7533L80.9031 23.061ZM40.4919 24.1121C39.711 23.331 39.7111 22.0647 40.4921 21.2838L41.9014 19.8746C42.6824 19.0936 43.9487 19.0936 44.7297 19.8746L48.295 23.4397C49.0762 24.2209 49.0761 25.4875 48.2947 26.2685L46.8845 27.6779C46.1034 28.4587 44.8372 28.4584 44.0563 27.6774L40.4919 24.1121ZM48.8241 32.4433C48.0429 31.6623 48.0429 30.3959 48.8241 29.6148L50.2351 28.2039C51.0161 27.4229 52.2824 27.4229 53.0634 28.2039L56.536 31.6763C57.3171 32.4574 57.3171 33.7238 56.536 34.5048L55.125 35.9157C54.344 36.6967 53.0777 36.6967 52.2967 35.9157L48.8241 32.4433ZM57.0701 40.6893C56.2892 39.9082 56.2893 38.642 57.0704 37.861L58.4816 36.4499C59.2626 35.6689 60.5289 35.6689 61.3099 36.4499L64.7854 39.9252C65.5654 40.7051 65.5667 41.9693 64.7884 42.7508L63.3795 44.1654C62.5988 44.9492 61.3302 44.9504 60.548 44.1681L57.0701 40.6893ZM71.713 52.5001C70.932 53.2814 69.6655 53.2815 68.8843 52.5004L65.3187 48.935C64.5377 48.1541 64.5376 46.8879 65.3184 46.1068L66.7281 44.6965C67.5091 43.9152 68.7756 43.9151 69.5568 44.6962L73.1224 48.2616C73.9034 49.0426 73.9035 50.3087 73.1227 51.0898L71.713 52.5001Z" fill="#106069" fill-opacity="19%"/>
</svg>
