<svg width="70" height="67" viewBox="0 0 70 67" fill="none" xmlns="http://www.w3.org/2000/svg">
<path d="M34.7539 0.5C15.6954 0.5 0.253906 15.2702 0.253906 33.5C0.253906 51.7298 15.6954 66.5 34.7539 66.5C53.8124 66.5 69.2539 51.7298 69.2539 33.5C69.2539 15.2702 53.8124 0.5 34.7539 0.5ZM42.6973 47.0859L30.4275 38.5565C29.9962 38.2504 29.7458 37.7714 29.7458 37.2657V14.871C29.7458 13.9927 30.4971 13.2742 31.4152 13.2742H38.0926C39.0108 13.2742 39.762 13.9927 39.762 14.871V32.1492C39.762 32.8037 40.0823 33.4169 40.6195 33.7908L48.5956 39.3415C49.3469 39.8605 49.4999 40.8585 48.9573 41.577L45.0343 46.7399C44.4918 47.4452 43.4485 47.6048 42.6973 47.0859Z" fill="#106069" fill-opacity="19%"/>
</svg>
