<svg width="67" height="77" viewBox="0 0 67 77" fill="none" xmlns="http://www.w3.org/2000/svg">
<path d="M0.253906 69.7812C0.253906 73.7666 3.42132 77 7.32534 77H59.1825C63.0865 77 66.2539 73.7666 66.2539 69.7812V30.875C66.2539 29.7704 65.3585 28.875 64.2539 28.875H2.2539C1.14933 28.875 0.253906 29.7704 0.253906 30.875V69.7812ZM47.3968 40.3047C47.3968 39.3121 48.1923 38.5 49.1646 38.5H55.0575C56.0298 38.5 56.8253 39.3121 56.8253 40.3047V46.3203C56.8253 47.3129 56.0298 48.125 55.0575 48.125H49.1646C48.1923 48.125 47.3968 47.3129 47.3968 46.3203V40.3047ZM47.3968 59.5547C47.3968 58.5621 48.1923 57.75 49.1646 57.75H55.0575C56.0298 57.75 56.8253 58.5621 56.8253 59.5547V65.5703C56.8253 66.5629 56.0298 67.375 55.0575 67.375H49.1646C48.1923 67.375 47.3968 66.5629 47.3968 65.5703V59.5547ZM28.5396 40.3047C28.5396 39.3121 29.3352 38.5 30.3075 38.5H36.2003C37.1727 38.5 37.9682 39.3121 37.9682 40.3047V46.3203C37.9682 47.3129 37.1727 48.125 36.2003 48.125H30.3075C29.3352 48.125 28.5396 47.3129 28.5396 46.3203V40.3047ZM28.5396 59.5547C28.5396 58.5621 29.3352 57.75 30.3075 57.75H36.2003C37.1727 57.75 37.9682 58.5621 37.9682 59.5547V65.5703C37.9682 66.5629 37.1727 67.375 36.2003 67.375H30.3075C29.3352 67.375 28.5396 66.5629 28.5396 65.5703V59.5547ZM9.68248 40.3047C9.68248 39.3121 10.478 38.5 11.4503 38.5H17.3432C18.3155 38.5 19.111 39.3121 19.111 40.3047V46.3203C19.111 47.3129 18.3155 48.125 17.3432 48.125H11.4503C10.478 48.125 9.68248 47.3129 9.68248 46.3203V40.3047ZM9.68248 59.5547C9.68248 58.5621 10.478 57.75 11.4503 57.75H17.3432C18.3155 57.75 19.111 58.5621 19.111 59.5547V65.5703C19.111 66.5629 18.3155 67.375 17.3432 67.375H11.4503C10.478 67.375 9.68248 66.5629 9.68248 65.5703V59.5547ZM59.1825 9.625H54.1111C53.0065 9.625 52.1111 8.72957 52.1111 7.625V2.40625C52.1111 1.08281 51.0503 0 49.7539 0H45.0396C43.7432 0 42.6825 1.08281 42.6825 2.40625V7.625C42.6825 8.72957 41.787 9.625 40.6825 9.625H25.8253C24.7208 9.625 23.8253 8.72957 23.8253 7.625V2.40625C23.8253 1.08281 22.7646 0 21.4682 0H16.7539C15.4575 0 14.3968 1.08281 14.3968 2.40625V7.625C14.3968 8.72957 13.5013 9.625 12.3968 9.625H7.32534C3.42132 9.625 0.253906 12.8584 0.253906 16.8438V22.0625C0.253906 23.1671 1.14934 24.0625 2.25391 24.0625H64.2539C65.3585 24.0625 66.2539 23.1671 66.2539 22.0625V16.8438C66.2539 12.8584 63.0865 9.625 59.1825 9.625Z" fill="#106069" fill-opacity="19%"/>
</svg>
