<svg width="46" height="84" viewBox="0 0 46 84" fill="none" xmlns="http://www.w3.org/2000/svg">
<path d="M45.961 74.0868C44.7044 59.67 39.6593 53.6944 35.9743 49.3369C33.4266 46.3125 32.2017 44.7394 32.2017 42C32.2017 39.2981 33.4223 37.755 35.9628 34.7925C39.6909 30.4481 44.7964 24.4969 45.9639 9.88504C46.0572 8.65744 45.9519 7.41796 45.6547 6.24681C45.3575 5.07566 44.875 3.99893 44.2386 3.08629C43.5589 2.1115 42.7301 1.33324 41.8057 0.801674C40.8813 0.270109 39.8817 -0.00296724 38.8714 4.60549e-05H7.12859C6.1169 -0.00407526 5.11578 0.268449 4.18984 0.800035C3.2639 1.33162 2.4337 2.11046 1.75281 3.08629C1.11827 4.00019 0.637653 5.07738 0.34197 6.2484C0.0462868 7.41943 -0.057901 8.65827 0.0361272 9.88504C1.19927 24.45 6.28606 30.3581 9.99979 34.6706C12.5648 37.65 13.7983 39.2044 13.7983 42C13.7983 44.8312 12.5619 46.4175 9.98829 49.4531C6.32201 53.7844 1.28985 59.715 0.0390034 74.0868C-0.0625611 75.3089 0.0347723 76.5451 0.324643 77.7147C0.614514 78.8843 1.0904 79.961 1.72118 80.8743C2.4035 81.8616 3.23771 82.6502 4.16943 83.1888C5.10115 83.7273 6.10945 84.0037 7.12859 84H38.8714C39.8905 84.0037 40.8988 83.7273 41.8306 83.1888C42.7623 82.6502 43.5965 81.8616 44.2788 80.8743C44.9096 79.961 45.3855 78.8843 45.6754 77.7147C45.9652 76.5451 46.0626 75.3089 45.961 74.0868ZM35.5516 75H10.5102C8.26729 75 7.63468 71.625 9.20759 69.5325C13.0148 64.5 20.6996 60.8962 20.6996 55.125V36C20.6996 32.2781 15.2361 29.4375 11.8559 23.4C11.2981 22.4044 11.3542 21 12.7718 21H33.2929C34.5021 21 34.7623 22.3931 34.2131 23.3906C30.8818 29.4375 25.3004 32.2594 25.3004 36V55.125C25.3004 60.8494 33.3102 63.9375 36.86 69.5381C38.2906 71.7956 37.7902 75 35.5516 75Z" fill="#106069" fill-opacity="19%"/>
</svg>
